<?xml version="1.0" encoding="UTF-8"?>
<svg xmlns="http://www.w3.org/2000/svg" xmlns:xlink="http://www.w3.org/1999/xlink" width="24px" height="24px" viewBox="0 0 24 24" version="1.1">
<g id="surface1">
<path style=" stroke:none;fill-rule:nonzero;fill:rgb(0%,0%,0%);fill-opacity:1;" d="M 1.136719 3.941406 C 1.324219 3.871094 1.527344 3.824219 1.738281 3.824219 L 22.261719 3.824219 C 22.472656 3.824219 22.675781 3.871094 22.863281 3.941406 L 13.667969 12.601562 C 12.734375 13.484375 11.265625 13.484375 10.332031 12.601562 Z M 23.742188 19.332031 C 23.902344 19.070312 24 18.765625 24 18.433594 L 24 5.566406 C 24 5.332031 23.953125 5.109375 23.867188 4.90625 L 15.265625 13.011719 Z M 14.484375 13.730469 C 13.773438 14.34375 12.886719 14.652344 12 14.652344 C 11.113281 14.652344 10.226562 14.34375 9.515625 13.730469 L 1.058594 20.035156 C 1.269531 20.125 1.496094 20.175781 1.738281 20.175781 L 22.261719 20.175781 C 22.503906 20.175781 22.730469 20.125 22.941406 20.035156 Z M 0.132812 4.90625 C 0.046875 5.109375 0 5.332031 0 5.566406 L 0 18.433594 C 0 18.765625 0.0976562 19.070312 0.257812 19.332031 L 8.734375 13.011719 Z M 0.132812 4.90625 "/>
</g>
</svg>
