<?xml version="1.0" encoding="UTF-8"?>
<svg xmlns="http://www.w3.org/2000/svg" xmlns:xlink="http://www.w3.org/1999/xlink" width="24px" height="24px" viewBox="0 0 24 24" version="1.1">
<g id="surface1">
<path style=" stroke:none;fill-rule:nonzero;fill:rgb(0%,0%,0%);fill-opacity:1;" d="M 4.875 7.921875 C 5.011719 8.054688 5.140625 8.195312 5.265625 8.339844 C 5.730469 8.867188 6.324219 9.167969 7.03125 9.226562 C 7.789062 9.265625 8.449219 9.03125 9.03125 8.546875 C 9.222656 8.359375 9.371094 8.144531 9.515625 7.921875 C 9.679688 7.976562 9.703125 8.019531 9.804688 8.160156 C 10.207031 8.691406 10.738281 9.03125 11.390625 9.1875 C 12.265625 9.300781 13.0625 9.160156 13.78125 8.625 C 13.976562 8.457031 14.144531 8.273438 14.289062 8.0625 C 14.324219 8.015625 14.355469 7.96875 14.390625 7.921875 C 14.421875 7.921875 14.453125 7.921875 14.484375 7.921875 C 14.542969 8 14.597656 8.078125 14.648438 8.15625 C 15.078125 8.757812 15.691406 9.089844 16.414062 9.214844 C 17.125 9.289062 17.777344 9.109375 18.375 8.71875 C 18.425781 8.667969 18.425781 8.667969 18.476562 8.617188 C 18.503906 8.589844 18.535156 8.558594 18.5625 8.53125 C 18.59375 8.53125 18.625 8.53125 18.65625 8.53125 C 18.667969 8.503906 18.679688 8.480469 18.691406 8.453125 C 18.757812 8.328125 18.835938 8.230469 18.921875 8.121094 C 18.949219 8.082031 18.980469 8.046875 19.007812 8.007812 C 19.03125 7.980469 19.054688 7.949219 19.078125 7.921875 C 19.1875 8.027344 19.296875 8.136719 19.394531 8.253906 C 19.847656 8.800781 20.527344 9.160156 21.234375 9.234375 C 21.40625 9.242188 21.578125 9.242188 21.75 9.234375 C 21.796875 9.394531 21.808594 9.550781 21.820312 9.71875 C 21.824219 9.777344 21.828125 9.835938 21.832031 9.898438 C 21.835938 9.960938 21.839844 10.027344 21.84375 10.089844 C 21.847656 10.140625 21.847656 10.140625 21.851562 10.1875 C 22.410156 19.222656 22.410156 19.222656 21.1875 21.515625 C 21.167969 21.5625 21.167969 21.5625 21.148438 21.609375 C 21.070312 21.765625 21.007812 21.867188 20.84375 21.941406 C 20.699219 21.976562 20.558594 22 20.410156 22.019531 C 20.328125 22.03125 20.328125 22.03125 20.242188 22.046875 C 20.058594 22.074219 19.871094 22.101562 19.6875 22.125 C 19.65625 22.128906 19.625 22.132812 19.59375 22.136719 C 18.703125 22.257812 17.808594 22.332031 16.910156 22.390625 C 16.867188 22.394531 16.824219 22.398438 16.78125 22.398438 C 15.6875 22.472656 14.597656 22.507812 13.503906 22.507812 C 13.382812 22.507812 13.265625 22.507812 13.148438 22.507812 C 12.898438 22.507812 12.652344 22.507812 12.402344 22.507812 C 12.152344 22.507812 11.902344 22.507812 11.652344 22.507812 C 9.160156 22.515625 6.660156 22.464844 4.191406 22.101562 C 4.039062 22.078125 3.886719 22.058594 3.734375 22.039062 C 3.125 21.957031 3.125 21.957031 2.929688 21.789062 C 2.851562 21.667969 2.808594 21.5625 2.765625 21.421875 C 2.734375 21.347656 2.703125 21.273438 2.671875 21.199219 C 1.988281 19.484375 2.046875 17.375 2.015625 15.5625 C 2.015625 15.53125 2.015625 15.496094 2.015625 15.464844 C 1.929688 10.375 1.929688 10.375 2.25 9.234375 C 2.292969 9.238281 2.292969 9.238281 2.335938 9.242188 C 3.09375 9.273438 3.808594 9.003906 4.378906 8.511719 C 4.570312 8.332031 4.730469 8.140625 4.875 7.921875 Z M 5.953125 11.25 C 5.925781 11.277344 5.902344 11.300781 5.875 11.328125 C 4.734375 12.5625 4.402344 14.558594 3.984375 16.132812 C 3.976562 16.167969 3.964844 16.199219 3.957031 16.234375 C 3.90625 16.429688 3.855469 16.625 3.804688 16.820312 C 3.78125 16.910156 3.757812 16.996094 3.734375 17.085938 C 3.355469 18.398438 3.355469 18.398438 3.609375 19.699219 C 3.792969 19.964844 4.058594 20.070312 4.363281 20.144531 C 5.183594 20.289062 6 20.203125 6.75 19.828125 C 6.808594 19.800781 6.808594 19.800781 6.867188 19.769531 C 7.574219 19.390625 8.023438 18.746094 8.25 17.988281 C 8.3125 17.742188 8.339844 17.503906 8.34375 17.25 C 8.394531 17.257812 8.449219 17.269531 8.5 17.277344 C 10.785156 17.664062 13.375 17.722656 15.65625 17.25 C 15.65625 17.28125 15.65625 17.316406 15.660156 17.347656 C 15.6875 17.980469 15.890625 18.523438 16.265625 19.03125 C 16.296875 19.078125 16.296875 19.078125 16.332031 19.121094 C 16.8125 19.738281 17.625 20.078125 18.378906 20.191406 C 19.003906 20.230469 19.71875 20.261719 20.25 19.875 C 20.5625 19.542969 20.589844 19.113281 20.578125 18.679688 C 20.554688 18.335938 20.488281 18.011719 20.410156 17.675781 C 20.398438 17.625 20.382812 17.570312 20.371094 17.515625 C 20.230469 16.921875 20.070312 16.328125 19.910156 15.738281 C 19.886719 15.652344 19.886719 15.652344 19.863281 15.570312 C 19.1875 12.761719 19.1875 12.761719 17.339844 10.675781 C 16.714844 10.363281 15.90625 10.394531 15.242188 10.570312 C 14.867188 10.699219 14.488281 10.933594 14.234375 11.242188 C 14.085938 11.363281 14 11.363281 13.808594 11.347656 C 13.75 11.339844 13.75 11.339844 13.683594 11.335938 C 13.167969 11.296875 12.65625 11.289062 12.136719 11.289062 C 12 11.289062 11.863281 11.289062 11.726562 11.289062 C 11.304688 11.289062 10.886719 11.296875 10.464844 11.335938 C 9.957031 11.378906 9.957031 11.378906 9.738281 11.261719 C 9.621094 11.15625 9.523438 11.042969 9.421875 10.921875 C 8.363281 10.128906 6.847656 10.339844 5.953125 11.25 Z M 5.953125 11.25 "/>
<path style=" stroke:none;fill-rule:nonzero;fill:rgb(0%,0%,0%);fill-opacity:1;" d="M 8.636719 1.492188 C 8.816406 1.492188 8.996094 1.492188 9.175781 1.492188 C 9.773438 1.492188 10.375 1.492188 10.972656 1.492188 C 11.003906 1.492188 11.039062 1.492188 11.070312 1.492188 C 11.117188 1.492188 11.117188 1.492188 11.167969 1.492188 C 11.648438 1.492188 12.132812 1.492188 12.613281 1.492188 C 14.167969 1.488281 15.722656 1.488281 17.277344 1.5 C 17.472656 1.5 17.664062 1.5 17.855469 1.5 C 18.320312 1.503906 18.785156 1.507812 19.25 1.515625 C 19.378906 1.515625 19.503906 1.519531 19.632812 1.519531 C 20.726562 1.523438 20.726562 1.523438 21.171875 1.945312 C 21.207031 1.984375 21.246094 2.023438 21.28125 2.0625 C 21.34375 2.117188 21.410156 2.175781 21.472656 2.230469 C 21.527344 2.277344 21.578125 2.328125 21.632812 2.378906 C 21.660156 2.40625 21.691406 2.433594 21.722656 2.460938 C 22.339844 3.054688 22.890625 3.695312 23.371094 4.410156 C 23.398438 4.453125 23.398438 4.453125 23.429688 4.496094 C 23.613281 4.777344 23.6875 4.988281 23.6875 5.320312 C 23.6875 5.355469 23.6875 5.386719 23.6875 5.421875 C 23.6875 5.492188 23.6875 5.566406 23.6875 5.636719 C 23.6875 5.742188 23.691406 5.851562 23.691406 5.957031 C 23.699219 6.730469 23.46875 7.324219 22.929688 7.890625 C 22.710938 8.097656 22.488281 8.257812 22.21875 8.390625 C 22.1875 8.40625 22.15625 8.421875 22.125 8.4375 C 21.644531 8.640625 20.988281 8.589844 20.515625 8.402344 C 19.726562 8.03125 19.339844 7.496094 19.03125 6.703125 C 19.011719 6.761719 19.011719 6.761719 18.992188 6.820312 C 18.726562 7.554688 18.332031 8.039062 17.625 8.378906 C 17.070312 8.605469 16.390625 8.628906 15.828125 8.40625 C 15.0625 8.03125 14.667969 7.492188 14.390625 6.703125 C 14.378906 6.734375 14.371094 6.769531 14.359375 6.800781 C 14.253906 7.117188 14.121094 7.375 13.921875 7.640625 C 13.871094 7.714844 13.871094 7.714844 13.816406 7.785156 C 13.425781 8.199219 12.84375 8.527344 12.265625 8.542969 C 11.460938 8.558594 10.820312 8.386719 10.214844 7.828125 C 9.925781 7.519531 9.746094 7.144531 9.609375 6.75 C 9.589844 6.796875 9.570312 6.839844 9.550781 6.890625 C 9.21875 7.632812 8.828125 8.113281 8.0625 8.4375 C 7.550781 8.617188 6.910156 8.605469 6.40625 8.40625 C 5.734375 8.074219 5.304688 7.640625 5.046875 6.929688 C 5.019531 6.855469 4.992188 6.78125 4.96875 6.703125 C 4.949219 6.75 4.933594 6.796875 4.914062 6.847656 C 4.652344 7.519531 4.253906 8.046875 3.578125 8.351562 C 3.039062 8.578125 2.429688 8.636719 1.871094 8.433594 C 1.503906 8.269531 1.210938 8.027344 0.9375 7.734375 C 0.914062 7.710938 0.890625 7.6875 0.871094 7.664062 C 0.511719 7.28125 0.316406 6.753906 0.304688 6.234375 C 0.304688 6.199219 0.304688 6.164062 0.304688 6.128906 C 0.300781 6.054688 0.300781 5.976562 0.300781 5.902344 C 0.300781 5.828125 0.296875 5.753906 0.292969 5.675781 C 0.273438 5.101562 0.363281 4.734375 0.703125 4.265625 C 0.730469 4.226562 0.757812 4.191406 0.785156 4.152344 C 0.855469 4.058594 0.929688 3.96875 1.003906 3.878906 C 1.03125 3.847656 1.058594 3.816406 1.082031 3.785156 C 1.265625 3.566406 1.449219 3.355469 1.640625 3.148438 C 1.730469 3.050781 1.8125 2.953125 1.898438 2.855469 C 2.199219 2.511719 2.523438 2.203125 2.882812 1.921875 C 2.996094 1.835938 2.996094 1.835938 3.078125 1.75 C 3.257812 1.585938 3.445312 1.574219 3.679688 1.566406 C 3.730469 1.5625 3.730469 1.5625 3.785156 1.5625 C 4.210938 1.539062 4.640625 1.53125 5.066406 1.519531 C 5.113281 1.519531 5.15625 1.519531 5.203125 1.519531 C 6.347656 1.492188 7.492188 1.492188 8.636719 1.492188 Z M 8.636719 1.492188 "/>
<path style=" stroke:none;fill-rule:nonzero;fill:rgb(0%,0%,0%);fill-opacity:1;" d="M 11.953125 12.65625 C 12.105469 12.722656 12.203125 12.804688 12.320312 12.921875 C 12.355469 12.957031 12.386719 12.992188 12.421875 13.027344 C 12.457031 13.0625 12.492188 13.097656 12.527344 13.132812 C 12.753906 13.367188 12.984375 13.589844 13.230469 13.800781 C 13.335938 13.898438 13.433594 14 13.527344 14.109375 C 13.644531 14.246094 13.765625 14.378906 13.898438 14.5 C 14.121094 14.722656 14.300781 14.980469 14.484375 15.234375 C 14.460938 15.28125 14.460938 15.28125 14.4375 15.328125 C 14.246094 15.320312 14.050781 15.316406 13.859375 15.308594 C 13.804688 15.304688 13.75 15.304688 13.695312 15.300781 C 13.617188 15.300781 13.617188 15.300781 13.535156 15.296875 C 13.488281 15.292969 13.4375 15.292969 13.390625 15.289062 C 13.265625 15.28125 13.265625 15.28125 13.125 15.234375 C 13.125 15.636719 13.125 16.039062 13.125 16.453125 C 12.382812 16.453125 11.640625 16.453125 10.875 16.453125 C 10.875 16.050781 10.875 15.648438 10.875 15.234375 C 10.78125 15.257812 10.78125 15.257812 10.6875 15.28125 C 10.597656 15.285156 10.503906 15.285156 10.414062 15.285156 C 10.359375 15.285156 10.308594 15.285156 10.253906 15.285156 C 10.199219 15.285156 10.144531 15.285156 10.089844 15.285156 C 10.035156 15.285156 9.980469 15.285156 9.921875 15.285156 C 9.789062 15.28125 9.652344 15.28125 9.515625 15.28125 C 9.640625 15.042969 9.777344 14.855469 9.964844 14.664062 C 10.015625 14.609375 10.0625 14.558594 10.113281 14.503906 C 10.140625 14.476562 10.164062 14.449219 10.191406 14.421875 C 10.285156 14.324219 10.378906 14.222656 10.46875 14.121094 C 10.777344 13.78125 11.089844 13.460938 11.433594 13.164062 C 11.613281 13.003906 11.78125 12.828125 11.953125 12.65625 Z M 11.953125 12.65625 "/>
</g>
</svg>
